<svg width="20" height="21" viewBox="0 0 20 21" fill="none" xmlns="http://www.w3.org/2000/svg">
<path fill-rule="evenodd" clip-rule="evenodd" d="M17.9424 6.3074C18.0006 6.36545 18.0467 6.43442 18.0782 6.51035C18.1098 6.58629 18.126 6.66769 18.126 6.7499C18.126 6.83211 18.1098 6.91351 18.0782 6.98944C18.0467 7.06537 18.0006 7.13434 17.9424 7.1924L10.4424 14.6924C10.3843 14.7506 10.3153 14.7968 10.2394 14.8283C10.1635 14.8598 10.0821 14.876 9.99986 14.876C9.91765 14.876 9.83625 14.8598 9.76032 14.8283C9.68439 14.7968 9.61542 14.7506 9.55736 14.6924L2.05736 7.1924C1.94 7.07504 1.87407 6.91587 1.87407 6.7499C1.87407 6.58393 1.94 6.42475 2.05736 6.3074C2.17472 6.19004 2.33389 6.12411 2.49986 6.12411C2.66583 6.12411 2.825 6.19004 2.94236 6.3074L9.99986 13.3661L17.0574 6.3074C17.1154 6.24919 17.1844 6.20301 17.2603 6.17151C17.3362 6.14 17.4177 6.12378 17.4999 6.12378C17.5821 6.12378 17.6635 6.14 17.7394 6.17151C17.8153 6.20301 17.8843 6.24919 17.9424 6.3074Z" fill="#505050"/>
</svg>
