<svg width="35" height="35" viewBox="0 0 35 35" fill="none" xmlns="http://www.w3.org/2000/svg">
<path d="M0.933362 6.99951C0.685819 6.99951 0.448415 7.09784 0.273375 7.27288C0.0983361 7.44791 0 7.68531 0 7.93285C0 8.18038 0.0983361 8.41778 0.273375 8.59281C0.448415 8.76785 0.685819 8.86618 0.933362 8.86618H3.00543L3.75398 11.8659L6.55034 26.7712C6.59037 26.9851 6.70388 27.1783 6.87124 27.3174C7.03861 27.4564 7.2493 27.5326 7.4669 27.5328H9.33362C8.34345 27.5328 7.39383 27.9262 6.69367 28.6263C5.99352 29.3265 5.60017 30.276 5.60017 31.2662C5.60017 32.2563 5.99352 33.2059 6.69367 33.906C7.39383 34.6062 8.34345 34.9995 9.33362 34.9995C10.3238 34.9995 11.2734 34.6062 11.9736 33.906C12.6737 33.2059 13.0671 32.2563 13.0671 31.2662C13.0671 30.276 12.6737 29.3265 11.9736 28.6263C11.2734 27.9262 10.3238 27.5328 9.33362 27.5328H22.4007C21.4105 27.5328 20.4609 27.9262 19.7607 28.6263C19.0606 29.3265 18.6672 30.276 18.6672 31.2662C18.6672 32.2563 19.0606 33.2059 19.7607 33.906C20.4609 34.6062 21.4105 34.9995 22.4007 34.9995C23.3909 34.9995 24.3405 34.6062 25.0406 33.906C25.7408 33.2059 26.1341 32.2563 26.1341 31.2662C26.1341 30.276 25.7408 29.3265 25.0406 28.6263C24.3405 27.9262 23.3909 27.5328 22.4007 27.5328H24.2674C24.485 27.5326 24.6957 27.4564 24.8631 27.3174C25.0304 27.1783 25.1439 26.9851 25.184 26.7712L27.9841 11.8379C28.0093 11.7032 28.0045 11.5646 27.9701 11.4319C27.9357 11.2993 27.8725 11.1758 27.7851 11.0703C27.6976 10.9649 27.5879 10.8799 27.4639 10.8216C27.3399 10.7633 27.2045 10.733 27.0675 10.7328H5.39483L4.63881 7.70698C4.58843 7.50498 4.47195 7.32562 4.3079 7.19742C4.14385 7.06923 3.94165 6.99957 3.73345 6.99951H0.933362ZM11.2003 31.2662C11.2003 31.7612 11.0037 32.236 10.6536 32.5861C10.3035 32.9362 9.82871 33.1328 9.33362 33.1328C8.83854 33.1328 8.36373 32.9362 8.01365 32.5861C7.66357 32.236 7.4669 31.7612 7.4669 31.2662C7.4669 30.7711 7.66357 30.2963 8.01365 29.9462C8.36373 29.5962 8.83854 29.3995 9.33362 29.3995C9.82871 29.3995 10.3035 29.5962 10.6536 29.9462C11.0037 30.2963 11.2003 30.7711 11.2003 31.2662ZM24.2674 31.2662C24.2674 31.7612 24.0707 32.236 23.7207 32.5861C23.3706 32.9362 22.8958 33.1328 22.4007 33.1328C21.9056 33.1328 21.4308 32.9362 21.0807 32.5861C20.7306 32.236 20.534 31.7612 20.534 31.2662C20.534 30.7711 20.7306 30.2963 21.0807 29.9462C21.4308 29.5962 21.9056 29.3995 22.4007 29.3995C22.8958 29.3995 23.3706 29.5962 23.7207 29.9462C24.0707 30.2963 24.2674 30.7711 24.2674 31.2662ZM12.1337 18.1995H19.6006C19.8481 18.1995 20.0856 18.2978 20.2606 18.4729C20.4356 18.6479 20.534 18.8853 20.534 19.1328C20.534 19.3804 20.4356 19.6178 20.2606 19.7928C20.0856 19.9678 19.8481 20.0662 19.6006 20.0662H12.1337C11.8862 20.0662 11.6488 19.9678 11.4737 19.7928C11.2987 19.6178 11.2003 19.3804 11.2003 19.1328C11.2003 18.8853 11.2987 18.6479 11.4737 18.4729C11.6488 18.2978 11.8862 18.1995 12.1337 18.1995Z" fill="#FB966E"/>
<rect x="20" width="15" height="15" rx="7.5" fill="#929292"/>
<path d="M25.728 11V10.04H27.444V3.98L25.836 5.192L25.248 4.388L27.732 2.6H28.524V10.04H29.952V11H25.728Z" fill="white"/>
</svg>
