<svg width="28" height="28" viewBox="0 0 28 28" fill="none" xmlns="http://www.w3.org/2000/svg">
<g clip-path="url(#clip0_110_3303)">
<path d="M11.375 12.25C11.1429 12.25 10.9204 12.3422 10.7563 12.5063C10.5922 12.6704 10.5 12.8929 10.5 13.125C10.5 13.3571 10.5922 13.5796 10.7563 13.7437C10.9204 13.9078 11.1429 14 11.375 14H18.375C18.6071 14 18.8296 13.9078 18.9937 13.7437C19.1578 13.5796 19.25 13.3571 19.25 13.125C19.25 12.8929 19.1578 12.6704 18.9937 12.5063C18.8296 12.3422 18.6071 12.25 18.375 12.25H11.375Z" fill="#929292"/>
<path d="M0.875 1.15625C0.642936 1.15625 0.420376 1.24844 0.256282 1.41253C0.0921873 1.57663 0 1.79919 0 2.03125C0 2.26331 0.0921873 2.48587 0.256282 2.64997C0.420376 2.81406 0.642936 2.90625 0.875 2.90625H2.8175L3.51925 5.7185L6.14075 19.6922C6.17829 19.8928 6.2847 20.0739 6.44159 20.2042C6.59849 20.3346 6.79601 20.4061 7 20.4062H8.75C7.82174 20.4062 6.9315 20.775 6.27513 21.4314C5.61875 22.0878 5.25 22.978 5.25 23.9062C5.25 24.8345 5.61875 25.7247 6.27513 26.3811C6.9315 27.0375 7.82174 27.4062 8.75 27.4062C9.67826 27.4062 10.5685 27.0375 11.2249 26.3811C11.8813 25.7247 12.25 24.8345 12.25 23.9062C12.25 22.978 11.8813 22.0878 11.2249 21.4314C10.5685 20.775 9.67826 20.4062 8.75 20.4062H21C20.0717 20.4062 19.1815 20.775 18.5251 21.4314C17.8688 22.0878 17.5 22.978 17.5 23.9062C17.5 24.8345 17.8688 25.7247 18.5251 26.3811C19.1815 27.0375 20.0717 27.4062 21 27.4062C21.9283 27.4062 22.8185 27.0375 23.4749 26.3811C24.1313 25.7247 24.5 24.8345 24.5 23.9062C24.5 22.978 24.1313 22.0878 23.4749 21.4314C22.8185 20.775 21.9283 20.4062 21 20.4062H22.75C22.954 20.4061 23.1515 20.3346 23.3084 20.2042C23.4653 20.0739 23.5717 19.8928 23.6093 19.6922L26.2343 5.69225C26.2579 5.56596 26.2534 5.43602 26.2212 5.31166C26.1889 5.18729 26.1297 5.07155 26.0477 4.97266C25.9657 4.87376 25.8629 4.79415 25.7466 4.73946C25.6304 4.68478 25.5035 4.65637 25.375 4.65625H5.0575L4.34875 1.8195C4.30152 1.63012 4.19232 1.46197 4.03853 1.34179C3.88474 1.22161 3.69518 1.1563 3.5 1.15625H0.875ZM7.72625 18.6562L5.4285 6.40625H24.3215L22.0238 18.6562H7.72625ZM10.5 23.9062C10.5 24.3704 10.3156 24.8155 9.98744 25.1437C9.65925 25.4719 9.21413 25.6562 8.75 25.6562C8.28587 25.6562 7.84075 25.4719 7.51256 25.1437C7.18438 24.8155 7 24.3704 7 23.9062C7 23.4421 7.18438 22.997 7.51256 22.6688C7.84075 22.3406 8.28587 22.1562 8.75 22.1562C9.21413 22.1562 9.65925 22.3406 9.98744 22.6688C10.3156 22.997 10.5 23.4421 10.5 23.9062ZM22.75 23.9062C22.75 24.3704 22.5656 24.8155 22.2374 25.1437C21.9093 25.4719 21.4641 25.6562 21 25.6562C20.5359 25.6562 20.0908 25.4719 19.7626 25.1437C19.4344 24.8155 19.25 24.3704 19.25 23.9062C19.25 23.4421 19.4344 22.997 19.7626 22.6688C20.0908 22.3406 20.5359 22.1562 21 22.1562C21.4641 22.1562 21.9093 22.3406 22.2374 22.6688C22.5656 22.997 22.75 23.4421 22.75 23.9062Z" fill="#505050"/>
</g>
<defs>
<clipPath id="clip0_110_3303">
<rect width="28" height="28" fill="white"/>
</clipPath>
</defs>
</svg>
