<svg width="36" height="33" viewBox="0 0 36 33" fill="none" xmlns="http://www.w3.org/2000/svg">
<path d="M18.0003 6.04569L16.4318 4.42429C12.7501 0.618305 5.99931 1.9317 3.56236 6.71669C2.41827 8.96728 2.16013 12.2167 4.24926 16.3637C6.26182 20.3566 10.4488 25.1394 18.0003 30.349C25.5518 25.1394 29.7366 20.3566 31.7513 16.3637C33.8405 12.2145 33.5845 8.96728 32.4382 6.71669C30.0013 1.9317 23.2505 0.616105 19.5688 4.42209L18.0003 6.04569ZM18.0003 33C-15.5417 10.7097 7.6728 -6.68787 17.6153 2.5147C17.7465 2.63643 17.8749 2.76183 18.0003 2.8909C18.1235 2.76102 18.252 2.63625 18.3853 2.5169C28.3256 -6.69227 51.5423 10.7075 18.0003 33Z" fill="#505050"/>
</svg>
