<svg width="28" height="29" viewBox="0 0 28 29" fill="none" xmlns="http://www.w3.org/2000/svg">
<g clip-path="url(#clip0_456_2182)">
<path d="M14 14.5C15.8565 14.5 17.637 13.7625 18.9497 12.4497C20.2625 11.137 21 9.35651 21 7.5C21 5.64348 20.2625 3.86301 18.9497 2.55025C17.637 1.2375 15.8565 0.5 14 0.5C12.1435 0.5 10.363 1.2375 9.05025 2.55025C7.7375 3.86301 7 5.64348 7 7.5C7 9.35651 7.7375 11.137 9.05025 12.4497C10.363 13.7625 12.1435 14.5 14 14.5ZM18.6667 7.5C18.6667 8.73768 18.175 9.92466 17.2998 10.7998C16.4247 11.675 15.2377 12.1667 14 12.1667C12.7623 12.1667 11.5753 11.675 10.7002 10.7998C9.825 9.92466 9.33333 8.73768 9.33333 7.5C9.33333 6.26232 9.825 5.07534 10.7002 4.20017C11.5753 3.325 12.7623 2.83333 14 2.83333C15.2377 2.83333 16.4247 3.325 17.2998 4.20017C18.175 5.07534 18.6667 6.26232 18.6667 7.5ZM28 26.1667C28 28.5 25.6667 28.5 25.6667 28.5H2.33333C2.33333 28.5 0 28.5 0 26.1667C0 23.8333 2.33333 16.8333 14 16.8333C25.6667 16.8333 28 23.8333 28 26.1667ZM25.6667 26.1573C25.6643 25.5833 25.3073 23.8567 23.7253 22.2747C22.204 20.7533 19.341 19.1667 14 19.1667C8.659 19.1667 5.796 20.7533 4.27467 22.2747C2.69267 23.8567 2.338 25.5833 2.33333 26.1573H25.6667Z" fill="#505050"/>
</g>
<defs>
<clipPath id="clip0_456_2182">
<rect width="28" height="28" fill="white" transform="translate(0 0.5)"/>
</clipPath>
</defs>
</svg>
