<svg width="18" height="18" viewBox="0 0 18 18" fill="none" xmlns="http://www.w3.org/2000/svg">
<path d="M12.9764 11.4897C14.0051 10.0856 14.4659 8.34486 14.2665 6.61563C14.0671 4.88641 13.2222 3.29624 11.9009 2.16328C10.5796 1.03031 8.87925 0.438104 7.14009 0.505126C5.40094 0.572148 3.75122 1.29346 2.52098 2.52475C1.29074 3.75605 0.570705 5.40652 0.504937 7.14597C0.439169 8.88541 1.03251 10.5856 2.16626 11.9063C3.30001 13.227 4.89055 14.0708 6.61968 14.269C8.34881 14.4672 10.089 14.0051 11.4921 12.9752H11.491C11.5222 13.0177 11.5569 13.0584 11.5952 13.0974L15.6856 17.1884C15.8849 17.3878 16.1551 17.4999 16.4369 17.5C16.7188 17.5001 16.9891 17.3882 17.1885 17.189C17.3878 16.9897 17.4999 16.7194 17.5 16.4376C17.5001 16.1557 17.3882 15.8853 17.189 15.6859L13.0985 11.5949C13.0606 11.5564 13.0197 11.5219 12.9764 11.4897ZM13.2505 7.40499C13.2505 8.17249 13.0993 8.93246 12.8057 9.64153C12.512 10.3506 12.0816 10.9949 11.5389 11.5376C10.9963 12.0803 10.3521 12.5108 9.64317 12.8045C8.9342 13.0982 8.17433 13.2493 7.40694 13.2493C6.63956 13.2493 5.87969 13.0982 5.17072 12.8045C4.46175 12.5108 3.81757 12.0803 3.27494 11.5376C2.73232 10.9949 2.30189 10.3506 2.00823 9.64153C1.71456 8.93246 1.56341 8.17249 1.56341 7.40499C1.56341 5.85498 2.17907 4.36844 3.27494 3.27241C4.37082 2.17638 5.85714 1.56064 7.40694 1.56064C8.95675 1.56064 10.4431 2.17638 11.5389 3.27241C12.6348 4.36844 13.2505 5.85498 13.2505 7.40499Z" fill="#CC543A"/>
</svg>
