<svg width="129" height="128" viewBox="0 0 129 128" fill="none" xmlns="http://www.w3.org/2000/svg">
<circle cx="64.5" cy="64" r="64" fill="#D9D9D9"/>
<path d="M64.5 64C69.8043 64 74.8914 61.8929 78.6421 58.1421C82.3929 54.3914 84.5 49.3043 84.5 44C84.5 38.6957 82.3929 33.6086 78.6421 29.8579C74.8914 26.1071 69.8043 24 64.5 24C59.1957 24 54.1086 26.1071 50.3579 29.8579C46.6071 33.6086 44.5 38.6957 44.5 44C44.5 49.3043 46.6071 54.3914 50.3579 58.1421C54.1086 61.8929 59.1957 64 64.5 64ZM77.8333 44C77.8333 47.5362 76.4286 50.9276 73.9281 53.4281C71.4276 55.9286 68.0362 57.3333 64.5 57.3333C60.9638 57.3333 57.5724 55.9286 55.0719 53.4281C52.5714 50.9276 51.1667 47.5362 51.1667 44C51.1667 40.4638 52.5714 37.0724 55.0719 34.5719C57.5724 32.0714 60.9638 30.6667 64.5 30.6667C68.0362 30.6667 71.4276 32.0714 73.9281 34.5719C76.4286 37.0724 77.8333 40.4638 77.8333 44ZM104.5 97.3333C104.5 104 97.8333 104 97.8333 104H31.1667C31.1667 104 24.5 104 24.5 97.3333C24.5 90.6667 31.1667 70.6667 64.5 70.6667C97.8333 70.6667 104.5 90.6667 104.5 97.3333ZM97.8333 97.3067C97.8267 95.6667 96.8067 90.7333 92.2867 86.2133C87.94 81.8667 79.76 77.3333 64.5 77.3333C49.24 77.3333 41.06 81.8667 36.7133 86.2133C32.1933 90.7333 31.18 95.6667 31.1667 97.3067H97.8333Z" fill="#929292"/>
</svg>
